PathFileType	4	(X/Y/Z)	/Users/itak/Documents/Research/Walk-IL/dataset/trc/00533_00183.trc
DataRate	CameraRate	NumFrames	NumMarkers	Units	OrigDataRate	OrigDataStartFrame	OrigNumFrames
100.000000	100.000000	4	53	mm	100.000000	0	522
Frame#	Time	RPSI			LPSI			L3			STRN			T10			C7			CLAV			RBAK			LBAK			LSHO			LUPA			LAEL			LAOL			LWTS			LWPS			LFRA			LIFD			LHPS			LHTS			RSHO			RUPA			RAEL			RAOL			RWTS			RWPS			RFRA			RIFD			RHTS			RHPS			RBHD			LFHD			RFHD			LBHD			LHIP			RHIP			RASI			LASI			LKNE			LTHI			LANK			LTIP			LTOE			LMT1			LMT5			LHEE			RKNE			RTHI			RANK			RTIP			RTOE			RMT1			RMT5			RHEE			
		X1	Y1	Z1	X2	Y2	Z2	X3	Y3	Z3	X4	Y4	Z4	X5	Y5	Z5	X6	Y6	Z6	X7	Y7	Z7	X8	Y8	Z8	X9	Y9	Z9	X10	Y10	Z10	X11	Y11	Z11	X12	Y12	Z12	X13	Y13	Z13	X14	Y14	Z14	X15	Y15	Z15	X16	Y16	Z16	X17	Y17	Z17	X18	Y18	Z18	X19	Y19	Z19	X20	Y20	Z20	X21	Y21	Z21	X22	Y22	Z22	X23	Y23	Z23	X24	Y24	Z24	X25	Y25	Z25	X26	Y26	Z26	X27	Y27	Z27	X28	Y28	Z28	X29	Y29	Z29	X30	Y30	Z30	X31	Y31	Z31	X32	Y32	Z32	X33	Y33	Z33	X34	Y34	Z34	X35	Y35	Z35	X36	Y36	Z36	X37	Y37	Z37	X38	Y38	Z38	X39	Y39	Z39	X40	Y40	Z40	X41	Y41	Z41	X42	Y42	Z42	X43	Y43	Z43	X44	Y44	Z44	X45	Y45	Z45	X46	Y46	Z46	X47	Y47	Z47	X48	Y48	Z48	X49	Y49	Z49	X50	Y50	Z50	X51	Y51	Z51	X52	Y52	Z52	X53	Y53	Z53	

1	0	-1199.474731445312	969.7504272460938	-430.1864013671875	-1140.10693359375	967.81005859375	-539.3350219726562	-1178.26416015625	1032.8720703125	-493.2455139160156	-976.5797729492188	1202.7744140625	-403.1412658691406	-1193.960815429688	1138.991088867188	-497.0067749023438	-1157.245849609375	1369.857543945312	-476.6458435058594	-1012.340942382812	1296.690551757812	-418.8914794921875	-1231.943115234375	1247.076904296875	-417.0000305175781	-1146.580200195312	1315.723022460938	-566.1028442382812	-1032.7236328125	1364.032348632812	-599.0272216796875	-1025.619995117188	1238.455932617188	-662.0394287109375	-1010.368957519531	1030.118530273438	-690.8164672851562	-1100.559448242188	1020.295837402344	-648.4578247070312	-931.6963500976562	849.221923828125	-638.7348022460938	-994.611083984375	812.0601806640625	-698.579345703125	-992.6875	947.8408813476562	-691.08251953125	-918.0687866210938	692.3547973632812	-638.959228515625	-968.465576171875	758.9324340820312	-689.22607421875	-912.934814453125	773.0437622070312	-657.1770629882812	-1163.8330078125	1365.655883789062	-319.5966796875	-1202.547607421875	1297.950561523438	-275.0455322265625	-1220.265747070312	1032.060668945312	-232.2831726074219	-1242.5517578125	1013.66943359375	-291.9722290039062	-1122.804565429688	838.9363403320312	-181.5247497558594	-1207.24072265625	810.2061767578125	-198.2468872070312	-1220.236694335938	978.2018432617188	-221.5312042236328	-1111.664672851562	680.4998168945312	-167.1840362548828	-1123.122192382812	748.0978393554688	-146.8161468505859	-1186.187744140625	738.9426879882812	-177.1880798339844	-1167.525634765625	1517.8544921875	-395.5911254882812	-1000.188598632812	1601.702392578125	-468.3794250488281	-1059.405639648438	1593.759887695312	-355.8446655273438	-1106.178833007812	1520.909423828125	-542.5691528320312	-984.5584716796875	896.7304077148438	-606.5161743164062	-1163.751220703125	867.6712646484375	-274.2598876953125	-1043.91748046875	910.8190307617188	-284.4302673339844	-936.0865478515625	927.5372314453125	-500.5603332519531	-1003.190063476562	473.9674682617188	-578.6136474609375	-976.0023193359375	631.3070678710938	-587.2469482421875	-1103.498413085938	52.08428192138672	-622.6574096679688	-1036.931762695312	325.6233215332031	-600.4600219726562	-959.6718139648438	38.08865737915039	-473.9204711914062	-1045.001098632812	42.57744598388672	-484.90478515625	-1004.127990722656	46.88547515869141	-577.5145263671875	-1174.75634765625	47.75150680541992	-592.8756103515625	-1168.011596679688	481.0740661621094	-312.147216796875	-1147.000244140625	738.3837280273438	-261.4929504394531	-1229.369506835938	49.29076385498047	-379.9212646484375	-1169.004272460938	337.6238708496094	-333.0886535644531	-1025.782958984375	42.35480880737305	-347.0157470703125	-1075.421997070312	49.81473541259766	-405.0494079589844	-1129.23876953125	45.07986068725586	-324.6117858886719	-1260.191772460938	41.23323440551758	-443.4575500488281	
2	0.01	-1199.52001953125	969.7708740234375	-430.3010559082031	-1140.165405273438	967.8482666015625	-539.4175415039062	-1178.314453125	1032.933959960938	-493.318603515625	-976.56787109375	1202.785278320312	-403.2426452636719	-1194.01123046875	1139.032836914062	-497.0635681152344	-1157.225708007812	1369.865478515625	-476.6884460449219	-1012.331420898438	1296.694091796875	-418.9607543945312	-1231.936157226562	1247.117065429688	-417.0552673339844	-1146.56689453125	1315.7783203125	-566.1738891601562	-1032.711791992188	1364.074584960938	-599.0733642578125	-1025.697143554688	1238.508422851562	-662.1152954101562	-1010.539245605469	1030.19287109375	-690.9436645507812	-1100.5546875	1020.304809570312	-648.52587890625	-931.8681640625	849.266845703125	-638.8902587890625	-994.7938842773438	812.1690673828125	-698.7755737304688	-992.833984375	947.913330078125	-691.2799072265625	-918.1470947265625	692.44482421875	-639.343505859375	-968.6215209960938	758.9873657226562	-689.4475708007812	-913.073486328125	773.1092529296875	-657.4583129882812	-1163.806884765625	1365.671630859375	-319.6280822753906	-1202.542236328125	1297.988159179688	-275.0919189453125	-1220.43359375	1032.111938476562	-232.3411407470703	-1242.746826171875	1013.728759765625	-292.0238342285156	-1123.109130859375	838.9246215820312	-181.6079406738281	-1207.607788085938	810.2803344726562	-198.2517395019531	-1220.452880859375	978.2366943359375	-221.611328125	-1112.135498046875	680.4828491210938	-167.1784515380859	-1123.521728515625	748.0758666992188	-146.8144836425781	-1186.548095703125	739.0059204101562	-177.3128051757812	-1167.4560546875	1517.899536132812	-395.5616760253906	-1000.075866699219	1601.698608398438	-468.4070739746094	-1059.291015625	1593.762329101562	-355.8416137695312	-1106.122924804688	1520.962524414062	-542.5786743164062	-984.6138916015625	896.728271484375	-606.5858764648438	-1163.778564453125	867.6819458007812	-274.37109375	-1043.967529296875	910.8202514648438	-284.5169067382812	-936.1654663085938	927.5359497070312	-500.7638244628906	-1003.180603027344	473.9798278808594	-578.6658325195312	-976.0455322265625	631.318359375	-587.3442993164062	-1103.490234375	52.07778930664062	-622.65234375	-1036.964233398438	325.5940246582031	-600.5150146484375	-959.669921875	38.06766891479492	-473.9754638671875	-1045.002685546875	42.5787239074707	-484.9036254882812	-1004.126892089844	46.88788986206055	-577.5123291015625	-1174.771728515625	47.75130081176758	-592.84765625	-1168.021850585938	481.0882873535156	-312.2127075195312	-1146.985717773438	738.4168090820312	-261.5675964355469	-1229.37060546875	49.29657363891602	-379.9222412109375	-1169.000122070312	337.6338195800781	-333.134033203125	-1025.789916992188	42.35497665405273	-347.0195007324219	-1075.419555664062	49.80442428588867	-405.0686950683594	-1129.235229492188	45.07724761962891	-324.6220397949219	-1260.192749023438	41.23104858398438	-443.4590759277344	
3	0.02	-1199.569580078125	969.7974853515625	-430.4492492675781	-1140.234252929688	967.8916625976562	-539.5271606445312	-1178.366333007812	1033.0078125	-493.4115295410156	-976.55517578125	1202.79150390625	-403.3710632324219	-1194.06494140625	1139.085571289062	-497.1348266601562	-1157.198974609375	1369.874755859375	-476.7436218261719	-1012.317504882812	1296.698486328125	-419.0468139648438	-1231.927124023438	1247.168334960938	-417.1231994628906	-1146.543823242188	1315.8515625	-566.2578125	-1032.688232421875	1364.1279296875	-599.1317749023438	-1025.794677734375	1238.5771484375	-662.2190551757812	-1010.749938964844	1030.288208007812	-691.1050415039062	-1100.578247070312	1020.340026855469	-648.6179809570312	-932.0770874023438	849.3236694335938	-639.0824584960938	-995.0149536132812	812.29833984375	-699.0346069335938	-993.0307006835938	948.0033569335938	-691.5269775390625	-918.6072387695312	692.3514404296875	-639.6293334960938	-968.8330078125	759.04931640625	-689.719970703125	-913.2637329101562	773.1699829101562	-657.8135986328125	-1163.768798828125	1365.694702148438	-319.6701049804688	-1202.533569335938	1298.032470703125	-275.1524047851562	-1220.634399414062	1032.171875	-232.4268646240234	-1242.974853515625	1013.804565429688	-292.1033935546875	-1123.493774414062	838.9042358398438	-181.7134552001953	-1208.0517578125	810.3611450195312	-198.2974853515625	-1220.7177734375	978.2808837890625	-221.7168579101562	-1112.718627929688	680.45703125	-167.1958312988281	-1124.024169921875	748.0421752929688	-146.8357696533203	-1187.007202148438	739.0700073242188	-177.4621124267578	-1167.368286132812	1517.952270507812	-395.5243835449219	-999.9303588867188	1601.6953125	-468.44677734375	-1059.147827148438	1593.7626953125	-355.83935546875	-1106.060302734375	1521.02783203125	-542.5928955078125	-984.7080688476562	896.72412109375	-606.6903686523438	-1163.819580078125	867.6929931640625	-274.5137329101562	-1044.025634765625	910.8239135742188	-284.6258850097656	-936.25732421875	927.537353515625	-501.0044555664062	-1003.164794921875	473.9969482421875	-578.7368774414062	-976.0931396484375	631.3276977539062	-587.46826171875	-1103.483764648438	52.07123184204102	-622.64794921875	-1037.000854492188	325.5577392578125	-600.583984375	-959.6685791015625	38.0477180480957	-474.0259094238281	-1045.00439453125	42.57999801635742	-484.9024353027344	-1004.126770019531	46.8900146484375	-577.5108032226562	-1174.787109375	47.74844741821289	-592.8207397460938	-1168.027465820312	481.1070861816406	-312.2975158691406	-1146.948852539062	738.4525146484375	-261.6597290039062	-1229.3720703125	49.30355072021484	-379.9234924316406	-1168.992553710938	337.6448364257812	-333.1900939941406	-1025.794799804688	42.35641860961914	-347.0241088867188	-1075.414794921875	49.78991317749023	-405.0938415527344	-1129.228637695312	45.07476425170898	-324.6355895996094	-1260.197509765625	41.23311614990234	-443.4622497558594	
4	0.03	-1199.6181640625	969.8284301757812	-430.62744140625	-1140.30859375	967.9359741210938	-539.6624145507812	-1178.412719726562	1033.0888671875	-493.5221557617188	-976.5420532226562	1202.789794921875	-403.5210266113281	-1194.114868164062	1139.147216796875	-497.2178039550781	-1157.163818359375	1369.886840820312	-476.8089599609375	-1012.298828125	1296.703002929688	-419.1453247070312	-1231.916259765625	1247.228759765625	-417.2008972167969	-1146.509765625	1315.940551757812	-566.348876953125	-1032.650268554688	1364.189331054688	-599.2006225585938	-1025.90576171875	1238.660400390625	-662.3502807617188	-1010.988342285156	1030.400756835938	-691.29345703125	-1100.642700195312	1020.410949707031	-648.7355346679688	-932.3128662109375	849.3873901367188	-639.3041381835938	-995.26416015625	812.4378051757812	-699.3507690429688	-993.2747802734375	948.1061401367188	-691.8126831054688	-919.333984375	692.1325073242188	-639.83349609375	-969.0945434570312	759.1149291992188	-690.0299682617188	-913.50244140625	773.2171630859375	-658.2237548828125	-1163.71826171875	1365.724243164062	-319.7228088378906	-1202.520751953125	1298.080078125	-275.2257080078125	-1220.855346679688	1032.235961914062	-232.5427551269531	-1243.21923828125	1013.893676757812	-292.215087890625	-1123.94140625	838.8722534179688	-181.838134765625	-1208.548950195312	810.438720703125	-198.3986663818359	-1221.0166015625	978.3324584960938	-221.8467712402344	-1113.385864257812	680.4204711914062	-167.2468719482422	-1124.607177734375	747.99560546875	-146.8911895751953	-1187.54736328125	739.1270141601562	-177.6313323974609	-1167.265258789062	1518.008911132812	-395.4811096191406	-999.7572021484375	1601.692993164062	-468.4987182617188	-1058.980346679688	1593.760009765625	-355.8389587402344	-1105.995971679688	1521.102416992188	-542.6121215820312	-984.8482055664062	896.7172241210938	-606.8346557617188	-1163.872680664062	867.7018432617188	-274.6823120117188	-1044.085571289062	910.8306884765625	-284.7539978027344	-936.353759765625	927.5433959960938	-501.264892578125	-1003.143371582031	474.0183410644531	-578.8265380859375	-976.1378784179688	631.3335571289062	-587.6153564453125	-1103.48046875	52.06507873535156	-622.6448974609375	-1037.03759765625	325.5181274414062	-600.6622924804688	-959.6681518554688	38.03081893920898	-474.0658569335938	-1045.005981445312	42.58129501342773	-484.9013366699219	-1004.128051757812	46.89152145385742	-577.5101318359375	-1174.80126953125	47.7430305480957	-592.7980346679688	-1168.025756835938	481.1302490234375	-312.3984680175781	-1146.882690429688	738.4883422851562	-261.7647705078125	-1229.373657226562	49.31131744384766	-379.925048828125	-1168.980712890625	337.6558532714844	-333.2548217773438	-1025.796752929688	42.35947418212891	-347.0297546386719	-1075.407592773438	49.77120590209961	-405.1243896484375	-1129.219360351562	45.07335662841797	-324.6515502929688	-1260.205200195312	41.23828506469727	-443.466796875	
